<svg width="374" height="356" viewBox="0 0 374 356" fill="none" xmlns="http://www.w3.org/2000/svg">
<path d="M154.014 83.838L139.685 71.912C135.689 68.5789 130.65 66.7523 125.446 66.75H44.5C38.5989 66.75 32.9396 69.0942 28.7669 73.2669C24.5942 77.4396 22.25 83.0989 22.25 89V267C22.25 272.901 24.5942 278.56 28.7669 282.733C32.9396 286.906 38.5989 289.25 44.5 289.25H311.5C317.401 289.25 323.06 286.906 327.233 282.733C331.406 278.56 333.75 272.901 333.75 267V111.25C333.75 105.349 331.406 99.6896 327.233 95.5169C323.06 91.3442 317.401 89 311.5 89H168.254C163.05 88.9977 158.011 87.1711 154.014 83.838Z" fill="#004AAD"/>
<path d="M196 178H374V244.75H196V178ZM196 267H262.75V333.75H196V267ZM285 267H374V333.75H285V267Z" fill="#E1BEE7"/>
</svg>
