<svg width="662" height="800" viewBox="0 0 662 800" fill="none" xmlns="http://www.w3.org/2000/svg">
<mask id="mask0_157_300" style="mask-type:luminance" maskUnits="userSpaceOnUse" x="-81" y="0" width="743" height="359">
<path d="M-81 0H662V358.57H-81V0Z" fill="white"/>
</mask>
<g mask="url(#mask0_157_300)">
<path d="M-73.0645 191.818L282.762 355.07C284.854 356.025 287.059 356.495 289.375 356.495C291.692 356.495 293.897 356.025 295.989 355.07L651.824 191.818C653.095 191.217 654.253 190.467 655.308 189.552C656.354 188.646 657.262 187.616 658.005 186.471C658.757 185.317 659.328 184.098 659.717 182.796C660.106 181.494 660.296 180.168 660.296 178.817C660.296 177.465 660.106 176.139 659.717 174.837C659.328 173.535 658.757 172.308 658.005 171.162C657.262 170.009 656.354 168.987 655.308 168.073C654.253 167.166 653.095 166.417 651.824 165.815L295.989 2.55526C293.897 1.60776 291.692 1.12988 289.375 1.12988C287.059 1.12988 284.854 1.60776 282.762 2.55526L-73.0645 165.815C-74.3353 166.417 -75.5024 167.166 -76.5485 168.073C-77.6032 168.987 -78.5023 170.009 -79.2544 171.162C-79.9979 172.308 -80.5685 173.535 -80.9575 174.837C-81.3465 176.139 -81.5454 177.465 -81.5454 178.817C-81.5454 180.168 -81.3465 181.494 -80.9575 182.796C-80.5685 184.098 -79.9979 185.317 -79.2544 186.471C-78.5023 187.616 -77.6032 188.646 -76.5485 189.552C-75.5024 190.467 -74.3353 191.217 -73.0645 191.818Z" fill="#004AAD" fill-opacity="0.55"/>
</g>
<mask id="mask1_157_300" style="mask-type:luminance" maskUnits="userSpaceOnUse" x="-81" y="333" width="743" height="222">
<path d="M-81 333.26H662V554.73H-81V333.26Z" fill="white"/>
</mask>
<g mask="url(#mask1_157_300)">
<path d="M-73.0631 390.05L282.763 552.997C284.855 553.944 287.06 554.422 289.377 554.422C291.694 554.422 293.898 553.944 295.99 552.997L651.825 390.05C653.096 389.465 654.263 388.723 655.318 387.825C656.373 386.927 657.281 385.906 658.033 384.76C658.793 383.615 659.364 382.396 659.753 381.102C660.151 379.8 660.341 378.482 660.341 377.131C660.341 375.78 660.151 374.453 659.753 373.16C659.364 371.866 658.793 370.638 658.033 369.501C657.281 368.356 656.373 367.334 655.318 366.436C654.263 365.538 653.096 364.797 651.825 364.212L595.269 338.052C592.399 336.693 589.39 335.663 586.261 334.963C583.14 334.262 579.967 333.916 576.751 333.916C573.543 333.916 570.371 334.262 567.241 334.963C564.112 335.663 561.112 336.693 558.233 338.052L338.983 438.9C335.17 440.639 331.271 442.163 327.286 443.481C323.301 444.799 319.246 445.903 315.131 446.793C311.016 447.683 306.857 448.351 302.664 448.795C298.472 449.24 294.261 449.471 290.043 449.471C285.815 449.471 281.614 449.24 277.412 448.795C273.219 448.351 269.069 447.683 264.946 446.793C260.831 445.903 256.776 444.799 252.791 443.481C248.805 442.163 244.906 440.639 241.094 438.9L20.6851 337.896C17.7803 336.569 14.7632 335.572 11.625 334.888C8.48679 334.213 5.30537 333.875 2.08937 333.875C-1.13528 333.875 -4.30805 334.213 -7.44625 334.888C-10.5931 335.572 -13.6103 336.569 -16.515 337.896L-73.0631 363.89C-74.3425 364.475 -75.5096 365.225 -76.5643 366.123C-77.6191 367.021 -78.5268 368.043 -79.2789 369.188C-80.0311 370.325 -80.6016 371.545 -80.9993 372.846C-81.3884 374.14 -81.5872 375.467 -81.5872 376.818C-81.5872 378.169 -81.3884 379.487 -80.9993 380.789C-80.6016 382.083 -80.0311 383.302 -79.2789 384.447C-78.5268 385.592 -77.6191 386.614 -76.5643 387.512C-75.5096 388.41 -74.3425 389.152 -73.0631 389.737V390.05Z" fill="#004AAD" fill-opacity="0.55"/>
</g>
<mask id="mask2_157_300" style="mask-type:luminance" maskUnits="userSpaceOnUse" x="-81" y="531" width="743" height="222">
<path d="M-81 531.53H662V753H-81V531.53Z" fill="white"/>
</mask>
<g mask="url(#mask2_157_300)">
<path d="M651.817 561.982L595.269 535.979C592.381 534.66 589.373 533.655 586.252 532.98C583.122 532.304 579.958 531.966 576.751 531.966C573.552 531.966 570.379 532.304 567.258 532.98C564.129 533.655 561.12 534.66 558.233 535.979L338.983 636.835C335.179 638.59 331.289 640.139 327.303 641.474C323.318 642.817 319.263 643.937 315.148 644.835C311.033 645.741 306.875 646.417 302.673 646.87C298.48 647.323 294.261 647.554 290.042 647.554C285.815 647.554 281.605 647.323 277.403 646.87C273.21 646.417 269.052 645.741 264.928 644.835C260.813 643.937 256.759 642.817 252.773 641.474C248.788 640.139 244.897 638.59 241.094 636.835L21.3507 535.979C18.4459 534.66 15.4201 533.655 12.2819 532.98C9.14373 532.304 5.96231 531.958 2.74632 531.958C-0.469687 531.958 -3.65111 532.304 -6.7893 532.98C-9.9275 533.655 -12.9533 534.66 -15.8581 535.979L-72.4061 561.982C-73.6769 562.567 -74.844 563.308 -75.8988 564.206C-76.9621 565.104 -77.8612 566.126 -78.622 567.271C-79.3741 568.416 -79.9447 569.636 -80.3337 570.929C-80.7314 572.231 -80.9216 573.55 -80.9216 574.901C-80.9216 576.252 -80.7314 577.578 -80.3337 578.872C-79.9447 580.174 -79.3741 581.393 -78.622 582.53C-77.8612 583.675 -76.9621 584.697 -75.8988 585.595C-74.844 586.493 -73.6769 587.235 -72.4061 587.82L282.763 751.08C284.855 752.027 287.06 752.505 289.377 752.505C291.694 752.505 293.898 752.027 295.99 751.08L651.817 587.82C653.096 587.235 654.263 586.493 655.318 585.595C656.373 584.697 657.28 583.675 658.033 582.53C658.793 581.393 659.364 580.174 659.753 578.872C660.151 577.578 660.341 576.252 660.341 574.901C660.341 573.55 660.151 572.231 659.753 570.929C659.364 569.636 658.793 568.416 658.033 567.271C657.28 566.126 656.373 565.104 655.318 564.206C654.263 563.308 653.096 562.567 651.817 561.982Z" fill="#004AAD" fill-opacity="0.55"/>
</g>
<g opacity="0.22">
<mask id="mask3_157_300" style="mask-type:luminance" maskUnits="userSpaceOnUse" x="-81" y="47" width="743" height="359">
<path d="M-81 47H662V405.57H-81V47Z" fill="white"/>
</mask>
<g mask="url(#mask3_157_300)">
<path d="M-73.0645 238.818L282.762 402.07C284.854 403.025 287.059 403.495 289.375 403.495C291.692 403.495 293.897 403.025 295.989 402.07L651.824 238.818C653.095 238.217 654.253 237.467 655.308 236.552C656.354 235.646 657.262 234.616 658.005 233.471C658.757 232.317 659.328 231.098 659.717 229.796C660.106 228.494 660.296 227.168 660.296 225.817C660.296 224.465 660.106 223.139 659.717 221.837C659.328 220.535 658.757 219.308 658.005 218.162C657.262 217.009 656.354 215.987 655.308 215.073C654.253 214.166 653.095 213.417 651.824 212.815L295.989 49.5553C293.897 48.6078 291.692 48.1299 289.375 48.1299C287.059 48.1299 284.854 48.6078 282.762 49.5553L-73.0645 212.815C-74.3353 213.417 -75.5024 214.166 -76.5485 215.073C-77.6032 215.987 -78.5023 217.009 -79.2544 218.162C-79.9979 219.308 -80.5685 220.535 -80.9575 221.837C-81.3465 223.139 -81.5454 224.465 -81.5454 225.817C-81.5454 227.168 -81.3465 228.494 -80.9575 229.796C-80.5685 231.098 -79.9979 232.317 -79.2544 233.471C-78.5023 234.616 -77.6032 235.646 -76.5485 236.552C-75.5024 237.467 -74.3353 238.217 -73.0645 238.818Z" fill="#004AAD" fill-opacity="0.62"/>
</g>
<mask id="mask4_157_300" style="mask-type:luminance" maskUnits="userSpaceOnUse" x="-81" y="380" width="743" height="222">
<path d="M-81 380.26H662V601.73H-81V380.26Z" fill="white"/>
</mask>
<g mask="url(#mask4_157_300)">
<path d="M-73.0631 437.05L282.763 599.997C284.855 600.944 287.06 601.422 289.377 601.422C291.694 601.422 293.898 600.944 295.99 599.997L651.825 437.05C653.096 436.465 654.263 435.723 655.318 434.825C656.373 433.927 657.281 432.906 658.033 431.76C658.793 430.615 659.364 429.396 659.753 428.102C660.151 426.8 660.341 425.482 660.341 424.131C660.341 422.78 660.151 421.453 659.753 420.16C659.364 418.866 658.793 417.638 658.033 416.501C657.281 415.356 656.373 414.334 655.318 413.436C654.263 412.538 653.096 411.797 651.825 411.212L595.269 385.052C592.399 383.693 589.39 382.663 586.261 381.963C583.14 381.262 579.967 380.916 576.751 380.916C573.543 380.916 570.371 381.262 567.241 381.963C564.112 382.663 561.112 383.693 558.233 385.052L338.983 485.9C335.17 487.639 331.271 489.163 327.286 490.481C323.301 491.799 319.246 492.903 315.131 493.793C311.016 494.683 306.857 495.351 302.664 495.795C298.472 496.24 294.261 496.471 290.043 496.471C285.815 496.471 281.614 496.24 277.412 495.795C273.219 495.351 269.069 494.683 264.946 493.793C260.831 492.903 256.776 491.799 252.791 490.481C248.805 489.163 244.906 487.639 241.094 485.9L20.6851 384.896C17.7803 383.569 14.7632 382.572 11.625 381.888C8.48679 381.213 5.30537 380.875 2.08937 380.875C-1.13528 380.875 -4.30805 381.213 -7.44625 381.888C-10.5931 382.572 -13.6103 383.569 -16.515 384.896L-73.0631 410.89C-74.3425 411.475 -75.5096 412.225 -76.5643 413.123C-77.6191 414.021 -78.5268 415.043 -79.2789 416.188C-80.0311 417.325 -80.6016 418.545 -80.9993 419.846C-81.3884 421.14 -81.5872 422.467 -81.5872 423.818C-81.5872 425.169 -81.3884 426.487 -80.9993 427.789C-80.6016 429.083 -80.0311 430.302 -79.2789 431.447C-78.5268 432.592 -77.6191 433.614 -76.5643 434.512C-75.5096 435.41 -74.3425 436.152 -73.0631 436.737V437.05Z" fill="#004AAD" fill-opacity="0.62"/>
</g>
<mask id="mask5_157_300" style="mask-type:luminance" maskUnits="userSpaceOnUse" x="-81" y="578" width="743" height="222">
<path d="M-81 578.53H662V800H-81V578.53Z" fill="white"/>
</mask>
<g mask="url(#mask5_157_300)">
<path d="M651.817 608.982L595.269 582.979C592.381 581.66 589.373 580.655 586.252 579.98C583.122 579.304 579.958 578.966 576.751 578.966C573.552 578.966 570.379 579.304 567.258 579.98C564.129 580.655 561.12 581.66 558.233 582.979L338.983 683.835C335.179 685.59 331.289 687.139 327.303 688.474C323.318 689.817 319.263 690.937 315.148 691.835C311.033 692.741 306.875 693.417 302.673 693.87C298.48 694.323 294.261 694.554 290.042 694.554C285.815 694.554 281.605 694.323 277.403 693.87C273.21 693.417 269.052 692.741 264.928 691.835C260.813 690.937 256.759 689.817 252.773 688.474C248.788 687.139 244.897 685.59 241.094 683.835L21.3507 582.979C18.4459 581.66 15.4201 580.655 12.2819 579.98C9.14373 579.304 5.96231 578.958 2.74632 578.958C-0.469687 578.958 -3.65111 579.304 -6.7893 579.98C-9.9275 580.655 -12.9533 581.66 -15.8581 582.979L-72.4061 608.982C-73.6769 609.567 -74.844 610.308 -75.8988 611.206C-76.9621 612.104 -77.8612 613.126 -78.622 614.271C-79.3741 615.416 -79.9447 616.636 -80.3337 617.929C-80.7314 619.231 -80.9216 620.55 -80.9216 621.901C-80.9216 623.252 -80.7314 624.578 -80.3337 625.872C-79.9447 627.174 -79.3741 628.393 -78.622 629.53C-77.8612 630.675 -76.9621 631.697 -75.8988 632.595C-74.844 633.493 -73.6769 634.235 -72.4061 634.82L282.763 798.08C284.855 799.027 287.06 799.505 289.377 799.505C291.694 799.505 293.898 799.027 295.99 798.08L651.817 634.82C653.096 634.235 654.263 633.493 655.318 632.595C656.373 631.697 657.28 630.675 658.033 629.53C658.793 628.393 659.364 627.174 659.753 625.872C660.151 624.578 660.341 623.252 660.341 621.901C660.341 620.55 660.151 619.231 659.753 617.929C659.364 616.636 658.793 615.416 658.033 614.271C657.28 613.126 656.373 612.104 655.318 611.206C654.263 610.308 653.096 609.567 651.817 608.982Z" fill="#004AAD" fill-opacity="0.62"/>
</g>
</g>
</svg>
