<svg width="19" height="20" viewBox="0 0 19 20" fill="none" xmlns="http://www.w3.org/2000/svg">
<path d="M18.6182 8.03546H17.861V7.99399H9.40055V11.991H14.7133C13.9382 14.3177 11.8555 15.988 9.40055 15.988C6.28567 15.988 3.76022 13.3035 3.76022 9.99249C3.76022 6.68148 6.28567 3.99699 9.40055 3.99699C10.8384 3.99699 12.1464 4.57356 13.1424 5.51535L15.8014 2.68898C14.1224 1.02573 11.8766 0 9.40055 0C4.20909 0 0 4.47414 0 9.99249C0 15.5108 4.20909 19.985 9.40055 19.985C14.592 19.985 18.8011 15.5108 18.8011 9.99249C18.8011 9.32249 18.7362 8.66848 18.6182 8.03546Z" fill="#FFC107"/>
<path d="M9.40057 19.9851C11.8287 19.9851 14.035 18.9973 15.7032 17.391L12.7937 14.774C11.8182 15.5626 10.6262 15.9891 9.40057 15.9881C6.95549 15.9881 4.87938 14.3308 4.09726 12.0181L1.03174 14.5287C2.58753 17.7647 5.74705 19.9851 9.40057 19.9851Z" fill="#4CAF50"/>
<path d="M18.6183 8.03561H17.8611V7.99414H9.40057V11.9911H14.7133C14.3425 13.0985 13.6747 14.0662 12.7923 14.7745L12.7937 14.7735L15.7032 17.3906C15.4973 17.5894 18.8011 14.9889 18.8011 9.99264C18.8011 9.32264 18.7363 8.66863 18.6183 8.03561Z" fill="#1976D2"/>
<path d="M1.0838 5.34148L4.17235 7.74917C5.00806 5.54983 7.032 3.99699 9.40046 3.99699C10.8383 3.99699 12.1464 4.57356 13.1424 5.51535L15.8013 2.68898C14.1224 1.02573 11.8766 0 9.40046 0C5.78971 0 2.65839 2.16687 1.0838 5.34148Z" fill="#FF3D00"/>
</svg>
