<svg width="118" height="33" viewBox="0 0 118 33" fill="none" xmlns="http://www.w3.org/2000/svg">
<path d="M27.9111 31.6958H20.3119L7.59918 12.1444V31.6958H0V0H7.59918L20.3119 19.6405V0H27.9111V31.6958Z" fill="#004AAD"/>
<path d="M55.3274 18.6918C55.3274 19.414 55.2829 20.1669 55.1947 20.9498H37.994C38.1125 22.5145 38.6083 23.7109 39.4821 24.539C40.3571 25.367 41.4311 25.7811 42.7047 25.7811C44.6016 25.7811 45.9208 24.9686 46.6619 23.3426H54.7492C54.3351 24.9987 53.5869 26.4888 52.5052 27.8128C51.4229 29.1367 50.0669 30.1754 48.4367 30.9277C46.8076 31.6806 44.9866 32.0567 42.9725 32.0567C40.5425 32.0567 38.3791 31.5307 36.4823 30.4775C34.5866 29.4232 33.1044 27.9181 32.037 25.9616C30.9707 24.0058 30.4375 21.7177 30.4375 19.0987C30.4375 16.4796 30.9635 14.1922 32.0156 12.2357C33.0677 10.2798 34.5416 8.77532 36.4372 7.72216C38.3341 6.6678 40.5129 6.14062 42.9725 6.14062C45.3717 6.14062 47.5043 6.65276 49.3703 7.67643C51.2375 8.69889 52.6972 10.1583 53.7492 12.0551C54.8013 13.9508 55.3274 16.1631 55.3274 18.6918ZM47.5505 16.6601C47.5505 15.3362 47.1056 14.283 46.2164 13.4995C45.3266 12.7165 44.2153 12.3248 42.8824 12.3248C41.6088 12.3248 40.5348 12.7015 39.6598 13.4537C38.7861 14.2066 38.2458 15.2754 38.0391 16.6601H47.5505Z" fill="#004AAD"/>
<path d="M72.5329 31.6954L67.7772 24.6976L63.7774 31.6954H55.555L63.7324 18.8264L55.3323 6.50146H63.8651L68.6208 13.4535L72.6206 6.50146H80.843L72.5329 19.1875L81.0657 31.6954H72.5329Z" fill="#0795FF"/>
<path d="M93.8156 32.0567C91.3856 32.0567 89.2003 31.5307 87.2591 30.4775C85.319 29.4232 83.793 27.9181 82.6811 25.9616C81.5703 24.0058 81.0153 21.7177 81.0153 19.0987C81.0153 16.5103 81.578 14.2307 82.7048 12.2598C83.8309 10.2877 85.3717 8.77532 87.3278 7.72216C89.2833 6.6678 91.4757 6.14062 93.9057 6.14062C96.3351 6.14062 98.5275 6.6678 100.484 7.72216C102.439 8.77532 103.979 10.2877 105.104 12.2598C106.23 14.2307 106.794 16.5103 106.794 19.0987C106.794 21.6876 106.223 23.9678 105.083 25.94C103.942 27.9109 102.386 29.4232 100.415 30.4775C98.4446 31.5307 96.245 32.0567 93.8156 32.0567ZM93.8156 25.3743C95.267 25.3743 96.5039 24.8326 97.5264 23.7494C98.55 22.6661 99.0618 21.1159 99.0618 19.0987C99.0618 17.0814 98.5648 15.5312 97.5714 14.4479C96.5791 13.3647 95.357 12.823 93.9057 12.823C92.4235 12.823 91.1937 13.3574 90.2163 14.4263C89.2382 15.4939 88.7495 17.0513 88.7495 19.0987C88.7495 21.1159 89.2305 22.6661 90.1926 23.7494C91.1558 24.8326 92.3637 25.3743 93.8156 25.3743Z" fill="#0795FF"/>
<path d="M112.92 32.0565C111.587 32.0565 110.498 31.6581 109.653 30.8601C108.809 30.0627 108.387 29.0764 108.387 27.9016C108.387 26.698 108.809 25.6906 109.653 24.8782C110.498 24.0645 111.587 23.6577 112.92 23.6577C114.225 23.6577 115.299 24.0645 116.143 24.8782C116.988 25.6906 117.411 26.698 117.411 27.9016C117.411 29.0764 116.988 30.0627 116.143 30.8601C115.299 31.6581 114.225 32.0565 112.92 32.0565Z" fill="#0795FF"/>
</svg>
