<svg width="182" height="55" viewBox="0 0 182 55" fill="none" xmlns="http://www.w3.org/2000/svg">
<mask id="mask0_105_1341" style="mask-type:luminance" maskUnits="userSpaceOnUse" x="0" y="0" width="51" height="27">
<path d="M0 0H50.9124V26.1905H0V0Z" fill="white"/>
</mask>
<g mask="url(#mask0_105_1341)">
<path d="M0.544025 14.0107L24.9262 25.9348C25.0696 26.0046 25.2206 26.0389 25.3794 26.0389C25.5382 26.0389 25.6892 26.0046 25.8326 25.9348L50.2154 14.0107C50.3024 13.9667 50.3818 13.912 50.4541 13.8452C50.5258 13.779 50.588 13.7037 50.6389 13.6201C50.6905 13.5358 50.7295 13.4468 50.7562 13.3517C50.7829 13.2566 50.7959 13.1597 50.7959 13.061C50.7959 12.9623 50.7829 12.8654 50.7562 12.7703C50.7295 12.6753 50.6905 12.5856 50.6389 12.5019C50.588 12.4177 50.5258 12.3431 50.4541 12.2763C50.3818 12.2101 50.3024 12.1553 50.2154 12.1114L25.8326 0.186632C25.6892 0.117424 25.5382 0.0825195 25.3794 0.0825195C25.2206 0.0825195 25.0696 0.117424 24.9262 0.186632L0.544025 12.1114C0.456944 12.1553 0.376971 12.2101 0.305292 12.2763C0.233021 12.3431 0.171412 12.4177 0.119874 12.5019C0.0689286 12.5856 0.0298307 12.6753 0.00317316 12.7703C-0.0234844 12.8654 -0.0371094 12.9623 -0.0371094 13.061C-0.0371094 13.1597 -0.0234844 13.2566 0.00317316 13.3517C0.0298307 13.4468 0.0689286 13.5358 0.119874 13.6201C0.171412 13.7037 0.233021 13.779 0.305292 13.8452C0.376971 13.912 0.456944 13.9667 0.544025 14.0107Z" fill="#0795FF"/>
</g>
<mask id="mask1_105_1341" style="mask-type:luminance" maskUnits="userSpaceOnUse" x="0" y="24" width="51" height="17">
<path d="M0 24.3418H50.9124V40.5183H0V24.3418Z" fill="white"/>
</mask>
<g mask="url(#mask1_105_1341)">
<path d="M0.543936 28.4898L24.9261 40.3917C25.0695 40.4609 25.2205 40.4958 25.3793 40.4958C25.5381 40.4958 25.6891 40.4609 25.8325 40.3917L50.2153 28.4898C50.3024 28.4471 50.3823 28.3929 50.4546 28.3273C50.5269 28.2617 50.5891 28.1871 50.6406 28.1035C50.6927 28.0198 50.7318 27.9307 50.7585 27.8363C50.7857 27.7412 50.7988 27.6449 50.7988 27.5462C50.7988 27.4475 50.7857 27.3506 50.7585 27.2561C50.7318 27.1616 50.6927 27.072 50.6406 26.9889C50.5891 26.9053 50.5269 26.8306 50.4546 26.765C50.3823 26.6994 50.3024 26.6453 50.2153 26.6026L46.3399 24.6918C46.1432 24.5925 45.937 24.5173 45.7226 24.4662C45.5087 24.415 45.2913 24.3897 45.071 24.3897C44.8512 24.3897 44.6338 24.415 44.4193 24.4662C44.2049 24.5173 43.9993 24.5925 43.8021 24.6918L28.7784 32.0579C28.5172 32.1849 28.25 32.2962 27.9769 32.3925C27.7038 32.4888 27.426 32.5694 27.144 32.6344C26.8621 32.6994 26.5771 32.7482 26.2898 32.7807C26.0025 32.8132 25.714 32.83 25.4249 32.83C25.1352 32.83 24.8473 32.8132 24.5594 32.7807C24.2721 32.7482 23.9878 32.6994 23.7052 32.6344C23.4232 32.5694 23.1454 32.4888 22.8723 32.3925C22.5992 32.2962 22.3321 32.1849 22.0708 32.0579L6.96782 24.6804C6.76877 24.5835 6.56203 24.5107 6.34699 24.4607C6.13195 24.4114 5.91395 24.3867 5.69358 24.3867C5.47262 24.3867 5.25522 24.4114 5.04018 24.4607C4.82455 24.5107 4.6178 24.5835 4.41876 24.6804L0.543936 26.5791C0.456262 26.6218 0.376289 26.6766 0.304018 26.7422C0.231746 26.8078 0.169545 26.8824 0.118007 26.966C0.0664691 27.0491 0.0273714 27.1382 0.000121407 27.2332C-0.0265361 27.3277 -0.0401611 27.4246 -0.0401611 27.5233C-0.0401611 27.622 -0.0265361 27.7183 0.000121407 27.8134C0.0273714 27.9079 0.0664691 27.9969 0.118007 28.0806C0.169545 28.1642 0.231746 28.2389 0.304018 28.3045C0.376289 28.3701 0.456262 28.4242 0.543936 28.4669V28.4898Z" fill="#004AAD"/>
</g>
<mask id="mask2_105_1341" style="mask-type:luminance" maskUnits="userSpaceOnUse" x="0" y="38" width="51" height="17">
<path d="M0 38.8237H50.9124V55.0002H0V38.8237Z" fill="white"/>
</mask>
<g mask="url(#mask2_105_1341)">
<path d="M50.2145 41.048L46.3396 39.1487C46.1418 39.0524 45.9356 38.979 45.7218 38.9296C45.5073 38.8803 45.2905 38.8556 45.0707 38.8556C44.8516 38.8556 44.6342 38.8803 44.4203 38.9296C44.2059 38.979 43.9997 39.0524 43.8018 39.1487L28.7782 46.5153C28.5176 46.6435 28.251 46.7567 27.9779 46.8542C27.7048 46.9522 27.427 47.0341 27.145 47.0997C26.863 47.1659 26.5781 47.2152 26.2902 47.2483C26.0029 47.2814 25.7138 47.2983 25.4247 47.2983C25.135 47.2983 24.8465 47.2814 24.5586 47.2483C24.2713 47.2152 23.9864 47.1659 23.7038 47.0997C23.4218 47.0341 23.144 46.9522 22.8709 46.8542C22.5978 46.7567 22.3313 46.6435 22.0706 46.5153L7.01323 39.1487C6.81418 39.0524 6.60685 38.979 6.39181 38.9296C6.17677 38.8803 5.95877 38.855 5.7384 38.855C5.51803 38.855 5.30003 38.8803 5.085 38.9296C4.86996 38.979 4.66262 39.0524 4.46358 39.1487L0.588753 41.048C0.501672 41.0907 0.421699 41.1448 0.349428 41.2104C0.276564 41.276 0.214955 41.3507 0.162825 41.4343C0.111287 41.518 0.0721891 41.607 0.0455316 41.7015C0.0182817 41.7966 0.00524902 41.8929 0.00524902 41.9916C0.00524902 42.0903 0.0182817 42.1872 0.0455316 42.2816C0.0721891 42.3767 0.111287 42.4658 0.162825 42.5488C0.214955 42.6325 0.276564 42.7071 0.349428 42.7727C0.421699 42.8383 0.501672 42.8925 0.588753 42.9352L24.9259 54.8599C25.0693 54.9291 25.2203 54.9641 25.3791 54.9641C25.5379 54.9641 25.6889 54.9291 25.8323 54.8599L50.2145 42.9352C50.3021 42.8925 50.3821 42.8383 50.4544 42.7727C50.5267 42.7071 50.5889 42.6325 50.6404 42.5488C50.6925 42.4658 50.7316 42.3767 50.7583 42.2816C50.7855 42.1872 50.7986 42.0903 50.7986 41.9916C50.7986 41.8929 50.7855 41.7966 50.7583 41.7015C50.7316 41.607 50.6925 41.518 50.6404 41.4343C50.5889 41.3507 50.5267 41.276 50.4544 41.2104C50.3821 41.1448 50.3021 41.0907 50.2145 41.048Z" fill="#004AAD"/>
</g>
<path d="M92.5003 38.5635H84.9011L72.1884 19.0121V38.5635H64.5892V6.86768H72.1884L84.9011 26.5081V6.86768H92.5003V38.5635Z" fill="#004AAD"/>
<path d="M119.917 25.5595C119.917 26.2817 119.872 27.0345 119.784 27.8175H102.583C102.702 29.3822 103.198 30.5785 104.071 31.4066C104.946 32.2347 106.02 32.6488 107.294 32.6488C109.191 32.6488 110.51 31.8363 111.251 30.2102H119.338C118.924 31.8664 118.176 33.3565 117.094 34.6804C116.012 36.0044 114.656 37.0431 113.026 37.7954C111.397 38.5482 109.576 38.9244 107.562 38.9244C105.132 38.9244 102.968 38.3984 101.071 37.3452C99.1758 36.2909 97.6937 34.7858 96.6262 32.8293C95.5599 30.8734 95.0267 28.5854 95.0267 25.9663C95.0267 23.3473 95.5528 21.0598 96.6049 19.1034C97.6569 17.1475 99.1308 15.643 101.026 14.5898C102.923 13.5355 105.102 13.0083 107.562 13.0083C109.961 13.0083 112.093 13.5204 113.96 14.5441C115.827 15.5666 117.286 17.0259 118.338 18.9228C119.391 20.8185 119.917 23.0307 119.917 25.5595ZM112.14 23.5278C112.14 22.2039 111.695 21.1507 110.806 20.3672C109.916 19.5842 108.805 19.1924 107.472 19.1924C106.198 19.1924 105.124 19.5692 104.249 20.3214C103.375 21.0743 102.835 22.1431 102.628 23.5278H112.14Z" fill="#004AAD"/>
<path d="M137.122 38.563L132.366 31.5653L128.367 38.563H120.144L128.322 25.6941L119.922 13.3691H128.454L133.21 20.3212L137.21 13.3691H145.432L137.122 26.0552L145.655 38.563H137.122Z" fill="#0795FF"/>
<path d="M158.405 38.9244C155.975 38.9244 153.79 38.3984 151.848 37.3452C149.908 36.2909 148.382 34.7858 147.27 32.8293C146.16 30.8734 145.604 28.5854 145.604 25.9663C145.604 23.378 146.167 21.0983 147.294 19.1274C148.42 17.1553 149.961 15.643 151.917 14.5898C153.872 13.5355 156.065 13.0083 158.495 13.0083C160.924 13.0083 163.117 13.5355 165.073 14.5898C167.028 15.643 168.569 17.1553 169.693 19.1274C170.82 21.0983 171.383 23.378 171.383 25.9663C171.383 28.5553 170.812 30.8355 169.672 32.8076C168.531 34.7785 166.976 36.2909 165.004 37.3452C163.034 38.3984 160.834 38.9244 158.405 38.9244ZM158.405 32.2419C159.856 32.2419 161.093 31.7003 162.116 30.6171C163.139 29.5338 163.651 27.9836 163.651 25.9663C163.651 23.9491 163.154 22.3988 162.161 21.3156C161.168 20.2323 159.946 19.6907 158.495 19.6907C157.013 19.6907 155.783 20.2251 154.805 21.2939C153.827 22.3615 153.339 23.919 153.339 25.9663C153.339 27.9836 153.82 29.5338 154.782 30.6171C155.745 31.7003 156.953 32.2419 158.405 32.2419Z" fill="#0795FF"/>
<path d="M177.51 38.9242C176.176 38.9242 175.087 38.5258 174.242 37.7278C173.398 36.9304 172.977 35.944 172.977 34.7693C172.977 33.5657 173.398 32.5583 174.242 31.7458C175.087 30.9322 176.176 30.5254 177.51 30.5254C178.814 30.5254 179.889 30.9322 180.732 31.7458C181.577 32.5583 182 33.5657 182 34.7693C182 35.944 181.577 36.9304 180.732 37.7278C179.889 38.5258 178.814 38.9242 177.51 38.9242Z" fill="#0795FF"/>
<path d="M120.747 45.2413V46.6206H122.226V47.0635H120.747V48.4838H122.401V48.9267H120.217V44.7983H122.401V45.2413H120.747Z" fill="#004AAD"/>
<path d="M124.564 45.6265C124.952 45.6265 125.266 45.7462 125.507 45.9851C125.748 46.2229 125.869 46.5665 125.869 47.0154V48.9268H125.343V47.0925C125.343 46.7699 125.263 46.5232 125.104 46.351C124.946 46.1795 124.729 46.0935 124.455 46.0935C124.175 46.0935 123.952 46.1825 123.786 46.3607C123.622 46.5376 123.54 46.7958 123.54 47.1358V48.9268H123.009V45.6866H123.54V46.1464C123.644 45.9815 123.786 45.8539 123.966 45.7637C124.148 45.6722 124.347 45.6265 124.564 45.6265Z" fill="#004AAD"/>
<path d="M127.728 48.4307L128.718 45.6865H129.282L128.031 48.9266H127.415L126.162 45.6865H126.733L127.728 48.4307Z" fill="#004AAD"/>
<path d="M129.887 45.1595C129.786 45.1595 129.7 45.1246 129.629 45.0536C129.559 44.9814 129.525 44.8947 129.525 44.7936C129.525 44.6913 129.559 44.6046 129.629 44.5336C129.7 44.4614 129.786 44.4253 129.887 44.4253C129.983 44.4253 130.066 44.4614 130.134 44.5336C130.201 44.6046 130.236 44.6913 130.236 44.7936C130.236 44.8947 130.201 44.9814 130.134 45.0536C130.066 45.1246 129.983 45.1595 129.887 45.1595ZM130.143 45.6867V48.9268H129.613V45.6867H130.143Z" fill="#004AAD"/>
<path d="M132.243 48.9798C131.944 48.9798 131.673 48.9112 131.43 48.7728C131.188 48.6349 130.999 48.4394 130.861 48.1854C130.724 47.9302 130.655 47.6354 130.655 47.2995C130.655 46.9692 130.725 46.6773 130.866 46.4233C131.008 46.1682 131.201 45.9726 131.447 45.836C131.691 45.7 131.964 45.6313 132.266 45.6313C132.57 45.6313 132.843 45.7 133.086 45.836C133.331 45.9726 133.525 46.167 133.667 46.4185C133.809 46.6707 133.88 46.9643 133.88 47.2995C133.88 47.6354 133.807 47.9302 133.662 48.1854C133.516 48.4394 133.319 48.6349 133.07 48.7728C132.822 48.9112 132.546 48.9798 132.243 48.9798ZM132.243 48.508C132.434 48.508 132.612 48.4634 132.778 48.3732C132.945 48.2817 133.08 48.1457 133.183 47.9639C133.286 47.781 133.337 47.5595 133.337 47.2995C133.337 47.0396 133.287 46.8193 133.186 46.6376C133.086 46.4564 132.954 46.3216 132.79 46.2332C132.627 46.1453 132.451 46.1008 132.262 46.1008C132.067 46.1008 131.89 46.1453 131.729 46.2332C131.567 46.3216 131.438 46.4564 131.34 46.6376C131.243 46.8193 131.195 47.0396 131.195 47.2995C131.195 47.5643 131.243 47.7876 131.338 47.9688C131.434 48.1505 131.561 48.2859 131.719 48.3756C131.878 48.464 132.053 48.508 132.243 48.508Z" fill="#004AAD"/>
<path d="M135.548 47.2945C135.548 46.9623 135.613 46.671 135.745 46.4207C135.877 46.1703 136.059 45.9766 136.29 45.8382C136.52 45.7003 136.779 45.6311 137.067 45.6311C137.314 45.6311 137.546 45.6901 137.759 45.8069C137.972 45.9224 138.136 46.0753 138.249 46.2642V44.5503H138.785V48.9266H138.249V48.3176C138.143 48.5102 137.987 48.669 137.782 48.7942C137.577 48.9182 137.336 48.9796 137.06 48.9796C136.777 48.9796 136.52 48.9092 136.29 48.7677C136.059 48.6251 135.877 48.4259 135.745 48.1707C135.613 47.9144 135.548 47.6219 135.548 47.2945ZM138.249 47.2993C138.249 47.0556 138.2 46.8432 138.102 46.6614C138.006 46.4803 137.875 46.3413 137.709 46.245C137.544 46.1487 137.364 46.1005 137.166 46.1005C136.967 46.1005 136.786 46.1481 136.624 46.2426C136.461 46.3358 136.331 46.4737 136.233 46.6566C136.136 46.8383 136.088 47.0508 136.088 47.2945C136.088 47.5437 136.136 47.7591 136.233 47.9421C136.331 48.125 136.461 48.2658 136.624 48.3633C136.786 48.4596 136.967 48.5078 137.166 48.5078C137.364 48.5078 137.544 48.4596 137.709 48.3633C137.875 48.2658 138.006 48.125 138.102 47.9421C138.2 47.7591 138.249 47.5449 138.249 47.2993Z" fill="#004AAD"/>
<path d="M142.398 47.1816C142.398 47.2845 142.391 47.3928 142.379 47.5066H139.829C139.848 47.8261 139.956 48.0759 140.152 48.2552C140.349 48.4351 140.586 48.5248 140.865 48.5248C141.093 48.5248 141.285 48.4713 141.438 48.3635C141.593 48.2546 141.701 48.1096 141.763 47.9278H142.334C142.249 48.2396 142.077 48.4929 141.82 48.6885C141.564 48.8829 141.245 48.9798 140.865 48.9798C140.563 48.9798 140.293 48.9112 140.054 48.7728C139.816 48.6349 139.629 48.4394 139.493 48.1854C139.357 47.9302 139.289 47.6354 139.289 47.2995C139.289 46.9643 139.354 46.6707 139.486 46.4185C139.618 46.167 139.804 45.9726 140.043 45.836C140.281 45.7 140.555 45.6313 140.865 45.6313C141.168 45.6313 141.436 45.6987 141.668 45.8336C141.902 45.9684 142.082 46.1531 142.208 46.3872C142.335 46.6219 142.398 46.8867 142.398 47.1816ZM141.851 47.0709C141.851 46.8656 141.806 46.6893 141.715 46.5413C141.627 46.392 141.506 46.2801 141.353 46.2043C141.2 46.1272 141.03 46.0887 140.843 46.0887C140.575 46.0887 140.346 46.1754 140.159 46.3487C139.97 46.522 139.863 46.7627 139.836 47.0709H141.851Z" fill="#004AAD"/>
<path d="M144.066 47.2945C144.066 46.9623 144.131 46.671 144.262 46.4207C144.395 46.1703 144.576 45.9766 144.807 45.8382C145.038 45.7003 145.297 45.6311 145.585 45.6311C145.832 45.6311 146.063 45.6901 146.276 45.8069C146.49 45.9224 146.653 46.0753 146.767 46.2642V44.5503H147.302V48.9266H146.767V48.3176C146.661 48.5102 146.505 48.669 146.3 48.7942C146.095 48.9182 145.854 48.9796 145.577 48.9796C145.294 48.9796 145.038 48.9092 144.807 48.7677C144.576 48.6251 144.395 48.4259 144.262 48.1707C144.131 47.9144 144.066 47.6219 144.066 47.2945ZM146.767 47.2993C146.767 47.0556 146.718 46.8432 146.62 46.6614C146.524 46.4803 146.393 46.3413 146.227 46.245C146.062 46.1487 145.881 46.1005 145.684 46.1005C145.485 46.1005 145.304 46.1481 145.141 46.2426C144.979 46.3358 144.848 46.4737 144.75 46.6566C144.654 46.8383 144.606 47.0508 144.606 47.2945C144.606 47.5437 144.654 47.7591 144.75 47.9421C144.848 48.125 144.979 48.2658 145.141 48.3633C145.304 48.4596 145.485 48.5078 145.684 48.5078C145.881 48.5078 146.062 48.4596 146.227 48.3633C146.393 48.2658 146.524 48.125 146.62 47.9421C146.718 47.7591 146.767 47.5449 146.767 47.2993Z" fill="#004AAD"/>
<path d="M149.394 48.9798C149.096 48.9798 148.824 48.9112 148.581 48.7728C148.34 48.6349 148.15 48.4394 148.013 48.1854C147.875 47.9302 147.807 47.6354 147.807 47.2995C147.807 46.9692 147.877 46.6773 148.018 46.4233C148.16 46.1682 148.353 45.9726 148.598 45.836C148.843 45.7 149.116 45.6313 149.418 45.6313C149.721 45.6313 149.994 45.7 150.238 45.836C150.482 45.9726 150.676 46.167 150.818 46.4185C150.961 46.6707 151.032 46.9643 151.032 47.2995C151.032 47.6354 150.959 47.9302 150.814 48.1854C150.668 48.4394 150.471 48.6349 150.221 48.7728C149.973 48.9112 149.698 48.9798 149.394 48.9798ZM149.394 48.508C149.585 48.508 149.764 48.4634 149.93 48.3732C150.097 48.2817 150.232 48.1457 150.335 47.9639C150.437 47.781 150.489 47.5595 150.489 47.2995C150.489 47.0396 150.438 46.8193 150.337 46.6376C150.238 46.4564 150.106 46.3216 149.942 46.2332C149.779 46.1453 149.603 46.1008 149.413 46.1008C149.219 46.1008 149.041 46.1453 148.88 46.2332C148.719 46.3216 148.589 46.4564 148.491 46.6376C148.395 46.8193 148.347 47.0396 148.347 47.2995C148.347 47.5643 148.394 47.7876 148.489 47.9688C148.585 48.1505 148.712 48.2859 148.871 48.3756C149.03 48.464 149.205 48.508 149.394 48.508Z" fill="#004AAD"/>
<path d="M151.338 47.2995C151.338 46.9643 151.403 46.6713 151.535 46.4209C151.668 46.1706 151.851 45.9768 152.085 45.8384C152.32 45.7006 152.589 45.6313 152.893 45.6313C153.284 45.6313 153.607 45.7288 153.862 45.9226C154.116 46.1152 154.284 46.3836 154.364 46.7266H153.795C153.74 46.5292 153.633 46.374 153.476 46.2596C153.319 46.1459 153.125 46.0887 152.893 46.0887C152.589 46.0887 152.344 46.1946 152.158 46.4065C151.972 46.6171 151.879 46.9144 151.879 47.2995C151.879 47.6913 151.972 47.994 152.158 48.2071C152.344 48.4189 152.589 48.5248 152.893 48.5248C153.125 48.5248 153.318 48.4695 153.473 48.3587C153.63 48.248 153.737 48.0909 153.795 47.8869H154.364C154.279 48.2179 154.108 48.4827 153.852 48.6813C153.596 48.8805 153.277 48.9798 152.893 48.9798C152.589 48.9798 152.32 48.9112 152.085 48.7728C151.851 48.6349 151.668 48.44 151.535 48.1878C151.403 47.9363 151.338 47.6402 151.338 47.2995Z" fill="#004AAD"/>
<path d="M157.704 45.6865V48.9266H157.175V48.4476C157.074 48.6131 156.932 48.7425 156.751 48.8352C156.571 48.9278 156.373 48.9748 156.156 48.9748C155.906 48.9748 155.683 48.923 155.486 48.8183C155.288 48.7124 155.132 48.5553 155.017 48.3465C154.903 48.1383 154.846 47.8837 154.846 47.5834V45.6865H155.37V47.5136C155.37 47.8332 155.449 48.0787 155.609 48.2502C155.768 48.4223 155.986 48.5078 156.261 48.5078C156.543 48.5078 156.766 48.4187 156.929 48.2406C157.093 48.0624 157.175 47.8043 157.175 47.4655V45.6865H157.704Z" fill="#004AAD"/>
<path d="M162.242 45.6265C162.492 45.6265 162.713 45.6788 162.906 45.7829C163.1 45.8876 163.253 46.0447 163.366 46.2547C163.479 46.4636 163.536 46.7169 163.536 47.0154V48.9268H163.013V47.0925C163.013 46.7699 162.933 46.5232 162.776 46.351C162.619 46.1795 162.407 46.0935 162.138 46.0935C161.863 46.0935 161.644 46.1837 161.479 46.3631C161.317 46.543 161.235 46.8024 161.235 47.1406V48.9268H160.712V47.0925C160.712 46.7699 160.632 46.5232 160.475 46.351C160.318 46.1795 160.106 46.0935 159.84 46.0935C159.563 46.0935 159.343 46.1837 159.181 46.3631C159.018 46.543 158.937 46.8024 158.937 47.1406V48.9268H158.406V45.6866H158.937V46.1536C159.041 45.9839 159.182 45.8539 159.359 45.7637C159.535 45.6722 159.731 45.6265 159.944 45.6265C160.211 45.6265 160.447 45.6878 160.652 45.8094C160.859 45.9316 161.013 46.1115 161.115 46.3486C161.203 46.1193 161.35 45.9418 161.555 45.8166C161.762 45.6903 161.991 45.6265 162.242 45.6265Z" fill="#004AAD"/>
<path d="M167.119 47.1816C167.119 47.2845 167.112 47.3928 167.1 47.5066H164.55C164.569 47.8261 164.677 48.0759 164.873 48.2552C165.07 48.4351 165.307 48.5248 165.586 48.5248C165.815 48.5248 166.006 48.4713 166.159 48.3635C166.314 48.2546 166.422 48.1096 166.484 47.9278H167.055C166.97 48.2396 166.798 48.4929 166.541 48.6885C166.285 48.8829 165.966 48.9798 165.586 48.9798C165.284 48.9798 165.014 48.9112 164.776 48.7728C164.537 48.6349 164.35 48.4394 164.214 48.1854C164.078 47.9302 164.01 47.6354 164.01 47.2995C164.01 46.9643 164.075 46.6707 164.207 46.4185C164.34 46.167 164.525 45.9726 164.764 45.836C165.002 45.7 165.276 45.6313 165.586 45.6313C165.889 45.6313 166.157 45.6987 166.389 45.8336C166.623 45.9684 166.803 46.1531 166.929 46.3872C167.056 46.6219 167.119 46.8867 167.119 47.1816ZM166.572 47.0709C166.572 46.8656 166.527 46.6893 166.437 46.5413C166.348 46.392 166.227 46.2801 166.074 46.2043C165.921 46.1272 165.751 46.0887 165.565 46.0887C165.296 46.0887 165.068 46.1754 164.88 46.3487C164.691 46.522 164.584 46.7627 164.558 47.0709H166.572Z" fill="#004AAD"/>
<path d="M169.177 45.6265C169.565 45.6265 169.879 45.7462 170.12 45.9851C170.361 46.2229 170.482 46.5665 170.482 47.0154V48.9268H169.956V47.0925C169.956 46.7699 169.876 46.5232 169.717 46.351C169.559 46.1795 169.342 46.0935 169.068 46.0935C168.788 46.0935 168.565 46.1825 168.399 46.3607C168.235 46.5376 168.153 46.7958 168.153 47.1358V48.9268H167.622V45.6866H168.153V46.1464C168.257 45.9815 168.399 45.8539 168.579 45.7637C168.761 45.6722 168.96 45.6265 169.177 45.6265Z" fill="#004AAD"/>
<path d="M171.801 46.1295V48.0385C171.801 48.1973 171.832 48.3099 171.898 48.3755C171.964 48.4399 172.079 48.4718 172.244 48.4718H172.632V48.9267H172.156C171.86 48.9267 171.638 48.8581 171.49 48.7197C171.343 48.5819 171.27 48.355 171.27 48.0385V46.1295H170.857V45.6866H171.27V44.8682H171.801V45.6866H172.632V46.1295H171.801Z" fill="#004AAD"/>
<path d="M174.47 48.9798C174.172 48.9798 173.9 48.9112 173.657 48.7728C173.416 48.6349 173.226 48.4394 173.089 48.1854C172.951 47.9302 172.883 47.6354 172.883 47.2995C172.883 46.9692 172.952 46.6773 173.093 46.4233C173.236 46.1682 173.429 45.9726 173.674 45.836C173.919 45.7 174.192 45.6313 174.494 45.6313C174.797 45.6313 175.07 45.7 175.314 45.836C175.558 45.9726 175.752 46.167 175.894 46.4185C176.036 46.6707 176.108 46.9643 176.108 47.2995C176.108 47.6354 176.035 47.9302 175.89 48.1854C175.744 48.4394 175.547 48.6349 175.297 48.7728C175.049 48.9112 174.773 48.9798 174.47 48.9798ZM174.47 48.508C174.661 48.508 174.84 48.4634 175.006 48.3732C175.173 48.2817 175.308 48.1457 175.411 47.9639C175.513 47.781 175.565 47.5595 175.565 47.2995C175.565 47.0396 175.514 46.8193 175.413 46.6376C175.314 46.4564 175.182 46.3216 175.018 46.2332C174.855 46.1453 174.679 46.1008 174.489 46.1008C174.295 46.1008 174.117 46.1453 173.956 46.2332C173.795 46.3216 173.665 46.4564 173.567 46.6376C173.471 46.8193 173.423 47.0396 173.423 47.2995C173.423 47.5643 173.47 47.7876 173.565 47.9688C173.661 48.1505 173.788 48.2859 173.947 48.3756C174.106 48.464 174.281 48.508 174.47 48.508Z" fill="#004AAD"/>
<path d="M177.741 48.9798C177.496 48.9798 177.277 48.9371 177.082 48.8522C176.888 48.7673 176.735 48.6494 176.623 48.4983C176.51 48.3461 176.448 48.171 176.436 47.9736H176.983C176.998 48.1361 177.074 48.2684 177.208 48.3708C177.342 48.4737 177.517 48.5248 177.734 48.5248C177.936 48.5248 178.095 48.4803 178.213 48.39C178.329 48.2985 178.388 48.1842 178.388 48.0458C178.388 47.9032 178.325 47.7972 178.201 47.728C178.076 47.6594 177.884 47.592 177.625 47.5258C177.388 47.462 177.194 47.3976 177.045 47.3332C176.896 47.2677 176.768 47.1714 176.661 47.0444C176.555 46.9162 176.502 46.7471 176.502 46.5365C176.502 46.3716 176.55 46.2199 176.646 46.0815C176.742 45.9437 176.88 45.8348 177.059 45.7541C177.237 45.6723 177.441 45.6313 177.67 45.6313C178.024 45.6313 178.309 45.7222 178.525 45.9034C178.743 46.0851 178.86 46.3337 178.876 46.6496H178.345C178.334 46.4799 178.267 46.3439 178.144 46.2428C178.022 46.1405 177.858 46.0887 177.654 46.0887C177.464 46.0887 177.312 46.1308 177.199 46.2139C177.086 46.2957 177.03 46.4035 177.03 46.5365C177.03 46.6442 177.064 46.7326 177.132 46.8013C177.2 46.8705 177.285 46.9258 177.388 46.9674C177.491 47.0077 177.633 47.0534 177.817 47.1046C178.046 47.169 178.232 47.2315 178.376 47.2923C178.52 47.3537 178.643 47.4452 178.746 47.5667C178.848 47.6889 178.901 47.8484 178.905 48.0458C178.905 48.2227 178.855 48.3822 178.758 48.5248C178.661 48.6662 178.524 48.7776 178.348 48.8594C178.172 48.9395 177.97 48.9798 177.741 48.9798Z" fill="#004AAD"/>
</svg>
